<?xml version="1.0" encoding="UTF-8"?>
<svg version="1.1" xmlns="http://www.w3.org/2000/svg" width="128" height="108">
<path d="M0 0 C5.22777575 -0.39865719 10.44658573 -0.68702017 15.68603516 -0.87890625 C17.46234158 -0.95889971 19.23760917 -1.06776844 21.01025391 -1.20703125 C35.25651384 -2.29734715 35.25651384 -2.29734715 39.71337891 1.43475342 C42.86235563 5.21706047 44.96875231 9.49083564 47.0166626 13.9407959 C48.40228922 16.84243273 50.12836856 19.47858936 51.890625 22.1640625 C53.01199553 23.98340279 54.13183567 25.80368742 55.25 27.625 C55.84167969 28.55183594 56.43335938 29.47867187 57.04296875 30.43359375 C57.59082031 31.33464844 58.13867188 32.23570313 58.703125 33.1640625 C59.44030762 34.34669678 59.44030762 34.34669678 60.19238281 35.55322266 C61.33876564 39.02633291 60.46659546 40.69493357 59 44 C57.84870956 46.11154369 56.63553105 48.19007523 55.375 50.23828125 C55.02743652 50.80451706 54.67987305 51.37075287 54.32177734 51.95414734 C53.59184455 53.13997061 52.85888935 54.32393831 52.12304688 55.50610352 C50.99538579 57.31992185 49.87994818 59.14085472 48.765625 60.96289062 C48.05279558 62.11762748 47.33927823 63.27194002 46.625 64.42578125 C45.97789063 65.47161377 45.33078125 66.51744629 44.6640625 67.5949707 C43 70 43 70 41 71 C40.51345947 70.17725586 40.02691895 69.35451172 39.52563477 68.50683594 C37.20657409 64.58671431 34.88504305 60.66805931 32.5625 56.75 C32.1383783 56.03447968 31.71425659 55.31895935 31.27728271 54.58175659 C24.43722459 43.04826973 17.52268227 31.56250769 10.52172852 20.12597656 C-0 2.89423303 -0 2.89423303 0 0 Z " fill="#8851DF" transform="translate(0,0)"/>
<path d="M0 0 C1.60279192 0.00015914 3.20558896 0.00585476 4.80834961 0.01586914 C5.65038437 0.01728409 6.49241913 0.01869904 7.35997009 0.02015686 C10.06024671 0.02577276 12.76044163 0.03832791 15.46069336 0.05102539 C17.28686404 0.05603834 19.11303602 0.06060161 20.93920898 0.06469727 C25.42556878 0.07574735 29.9118672 0.0930226 34.39819336 0.11352539 C33.12157923 3.46634641 31.67904106 6.55753782 29.89428711 9.66821289 C29.40613525 10.52165283 28.9179834 11.37509277 28.41503906 12.25439453 C27.89385498 13.15665771 27.3726709 14.0589209 26.83569336 14.98852539 C26.29195068 15.93397217 25.74820801 16.87941895 25.18798828 17.85351562 C21.16158785 24.83549686 17.06824484 31.77183977 12.88012695 38.65795898 C11.3441335 41.20310266 9.82399897 43.75743461 8.30589294 46.3132782 C6.77214141 48.89187496 5.2307361 51.46585254 3.68832397 54.03927612 C2.91415725 55.33444758 2.1429942 56.63141936 1.37490845 57.9302063 C0.28924965 59.76455269 -0.8073264 61.59193833 -1.90649414 63.41821289 C-2.86531494 65.02672119 -2.86531494 65.02672119 -3.84350586 66.66772461 C-5.60180664 69.11352539 -5.60180664 69.11352539 -8.60180664 70.11352539 C-10.68971409 66.6162353 -12.77128658 63.1152144 -14.85180664 59.61352539 C-15.43833008 58.63125977 -16.02485352 57.64899414 -16.62915039 56.63696289 C-18.30795339 53.80751964 -19.96308325 50.96634698 -21.60180664 48.11352539 C-22.04717773 47.34524414 -22.49254883 46.57696289 -22.95141602 45.78540039 C-25.18880923 41.68800558 -25.9013398 39.57294921 -24.60180664 35.11352539 C-23.51367188 32.82446289 -23.51367188 32.82446289 -22.16040039 30.48852539 C-21.41367065 29.18963379 -21.41367065 29.18963379 -20.65185547 27.86450195 C-19.8536438 26.50276855 -19.8536438 26.50276855 -19.03930664 25.11352539 C-18.23046021 23.7169873 -18.23046021 23.7169873 -17.40527344 22.29223633 C-4.52559523 0.1426423 -4.52559523 0.1426423 0 0 Z " fill="#8851DF" transform="translate(93.601806640625,-0.113525390625)"/>
<path d="M0 0 C0.66 0 1.32 0 2 0 C3.34106445 1.78491211 3.34106445 1.78491211 4.86328125 4.27734375 C5.42080078 5.18419922 5.97832031 6.09105469 6.55273438 7.02539062 C7.42381836 8.46688477 7.42381836 8.46688477 8.3125 9.9375 C8.88162109 10.86369141 9.45074219 11.78988281 10.03710938 12.74414062 C11.71194777 15.48426085 13.35687896 18.24077785 15 21 C15.51739746 21.83289551 16.03479492 22.66579102 16.56787109 23.52392578 C17.03402832 24.30106934 17.50018555 25.07821289 17.98046875 25.87890625 C18.60344849 26.89513062 18.60344849 26.89513062 19.23901367 27.93188477 C20.27123551 30.73713057 19.90654408 32.16160305 19 35 C17.96903501 36.98946048 16.85714195 38.9379528 15.69140625 40.8515625 C15.02689453 41.94984375 14.36238281 43.048125 13.67773438 44.1796875 C12.97276295 45.3281905 12.26768372 46.47662734 11.5625 47.625 C10.8606657 48.78084804 10.15948713 49.9370945 9.45898438 51.09375 C4.53234012 59.20148983 4.53234012 59.20148983 2 63 C-2.01417078 61.66194307 -2.44767975 59.96999718 -4.50390625 56.3203125 C-4.82785873 55.7517453 -5.15181122 55.1831781 -5.48558044 54.59738159 C-6.51987906 52.77800243 -7.54142721 50.95182875 -8.5625 49.125 C-9.58986657 47.30696289 -10.61975639 45.49037525 -11.65013123 43.67404175 C-12.58539851 42.02215661 -13.51465018 40.36686986 -14.44360352 38.71142578 C-15.56009565 36.76636513 -16.75595998 34.86606003 -18 33 C-17.66322079 29.25314084 -16.39881472 26.59671408 -14.453125 23.41796875 C-13.9375 22.56783203 -13.421875 21.71769531 -12.890625 20.84179688 C-12.34921875 19.96587891 -11.8078125 19.08996094 -11.25 18.1875 C-10.7240625 17.32318359 -10.198125 16.45886719 -9.65625 15.56835938 C-8.61458416 13.8601821 -7.56716371 12.1554991 -6.51367188 10.45458984 C-5.51693219 8.83826391 -4.53344411 7.21367877 -3.56445312 5.58056641 C-3.12552734 4.8488623 -2.68660156 4.1171582 -2.234375 3.36328125 C-1.84991211 2.71270752 -1.46544922 2.06213379 -1.06933594 1.3918457 C-0.71645508 0.93253662 -0.36357422 0.47322754 0 0 Z " fill="#8851DF" transform="translate(63,45)"/>
<path d="M0 0 C13.2 0 26.4 0 40 0 C34.375 11.25 34.375 11.25 31.44921875 16.0078125 C30.52592773 17.51601563 30.52592773 17.51601563 29.58398438 19.0546875 C28.95814453 20.06789063 28.33230469 21.08109375 27.6875 22.125 C27.04232422 23.176875 26.39714844 24.22875 25.73242188 25.3125 C24.15858685 27.87726819 22.5810685 30.43968701 21 33 C18.31455025 30.4393796 16.14244853 27.93873241 14.16015625 24.8046875 C13.65419922 24.00546875 13.14824219 23.20625 12.62695312 22.3828125 C12.11068359 21.55523438 11.59441406 20.72765625 11.0625 19.875 C10.55009766 19.070625 10.03769531 18.26625 9.50976562 17.4375 C5.92004902 11.72679455 3.06043104 6.12086207 0 0 Z " fill="#8851DF" transform="translate(44,0)"/>
</svg>
