<?xml version="1.0" standalone="no"?>
<!DOCTYPE svg PUBLIC "-//W3C//DTD SVG 20010904//EN"
 "http://www.w3.org/TR/2001/REC-SVG-20010904/DTD/svg10.dtd">
<svg version="1.0" xmlns="http://www.w3.org/2000/svg"
 width="64.000000pt" height="54.000000pt" viewBox="0 0 64.000000 54.000000"
 preserveAspectRatio="xMidYMid meet">
<metadata>
Created by potrace 1.16, written by Peter Selinger 2001-2019
</metadata>
<g transform="translate(0.000000,54.000000) scale(0.100000,-0.100000)"
fill="#000000" stroke="none">
<path d="M0 534 c0 -9 181 -316 195 -332 10 -11 22 2 59 67 l48 80 -57 96 -56
95 -94 0 c-52 0 -95 -3 -95 -6z"/>
<path d="M231 503 c48 -80 81 -123 89 -118 7 4 76 119 88 148 2 4 -42 7 -98 7
l-102 0 23 -37z"/>
<path d="M382 448 c-29 -50 -52 -96 -50 -102 5 -20 82 -156 88 -156 5 0 72
111 183 302 l27 48 -97 0 -98 0 -53 -92z"/>
<path d="M261 243 l-44 -77 34 -63 c18 -34 40 -70 47 -80 13 -17 14 -17 28 2
9 11 31 48 50 81 l34 62 -43 73 c-23 40 -47 74 -52 76 -6 1 -30 -32 -54 -74z"/>
</g>
</svg>
